# xmcd
#
# Track frame offsets:
#	150
#	23862
#	50600
#	74937
#	96700
#	113240
#	134387
#	161777
#	179202
#	204847
#
# Disc length: 3023 seconds
#
# Revision: 2
# Processed by: cddbd v1.5.2PL0 Copyright (c) Steve Scherf et al.
# Submitted via: EZCDAudioConverter 8.0.2.1
#
DISCID=a10bcd0a
DTITLE=Various Artist - Cánh Bướm Vườn Xuân
DYEAR=1997
DGENRE=
TTITLE0=Kiều Nga - Xuân yêu thương
TTITLE1=Lili Ann - Đón xuân này nhớ xuân xưa
TTITLE2=Tuyết Nhung - Khúc ca mừng xuân
TTITLE3=Duy Quang - Đầu xuân lính chúc
TTITLE4=Kỳ Duyên - Cánh Bướm Vườn Xuân
TTITLE5=Thái Thảo - Xuân miền Nam
TTITLE6=Hằng Nga - Đôi ngả chia ly
TTITLE7=Như Mai - Mừng nắng xuân về
TTITLE8=Thúy Vi - Đan áo mùa xuân
TTITLE9=Lynda Trang Đài, Thúy Du - Thiên duyên tiền định
EXTD=
EXTT0=
EXTT1=
EXTT2=
EXTT3=
EXTT4=
EXTT5=
EXTT6=
EXTT7=
EXTT8=
EXTT9=
PLAYORDER=
